
          <svg data-logo="logo" xmlns="http://www.w3.org/2000/svg" viewBox="0 0 191 43">
            <g id="logogram" transform="translate(0, 1) rotate(0)"><path d="M37.5569 2.04585C38.4821 1.08338 39.7385 0.542663 41.0469 0.542664C46.9335 0.542664 52.4811 0.542667 57.9442 0.542678C68.932 0.542701 74.4342 14.3629 66.6646 22.4456L49.7407 40.0517C48.9637 40.86 47.6352 40.2875 47.6352 39.1444V23.6376L49.591 21.6029C51.145 19.9864 50.0444 17.2223 47.8468 17.2223H22.9684L37.5569 2.04585Z" fill="#B005FF"/><path d="M33.0467 38.8142C32.1215 39.7767 30.8651 40.3174 29.5567 40.3174C23.6701 40.3174 18.1225 40.3174 12.6594 40.3174C1.67159 40.3173 -3.83061 26.4972 3.93897 18.4144L20.8629 0.808361C21.6399 8.48472e-05 22.9684 0.57254 22.9684 1.71562L22.9684 17.2223L21.0126 19.2571C19.4586 20.8737 20.5592 23.6377 22.7568 23.6377L47.6352 23.6376L33.0467 38.8142Z" fill="#3A04FF"/></g>
            <g id="logotype" transform="translate(77, 2)"><path fill="#7c24b7" d="M22.42 15.06L22.42 15.06Q22.42 13.41 21.42 12.43Q20.42 11.45 18.32 11.45L18.32 11.45L13.11 11.45L13.11 18.70L18.32 18.70Q19.72 18.70 20.63 18.26Q21.54 17.82 21.98 17.00Q22.42 16.18 22.42 15.06ZM8.38 7.50L18.46 7.50Q21.44 7.50 23.38 8.53Q25.32 9.56 26.28 11.30Q27.25 13.03 27.25 15.06L27.25 15.06Q27.25 16.42 26.76 17.77Q26.27 19.12 25.22 20.22Q24.17 21.32 22.50 21.99Q20.84 22.66 18.46 22.66L18.46 22.66L13.11 22.66L13.11 32L8.38 32L8.38 7.50ZM16.12 21.08L21.12 21.08L27.74 32L22.45 32L16.12 21.08ZM37.68 32.24L37.68 32.24Q35.05 32.24 33.05 31.09Q31.06 29.93 29.96 27.87Q28.86 25.80 28.86 23.11L28.86 23.11Q28.86 20.52 29.96 18.52Q31.06 16.53 32.98 15.39Q34.91 14.25 37.40 14.25L37.40 14.25Q39.92 14.25 41.84 15.34Q43.77 16.42 44.83 18.37Q45.90 20.31 45.90 22.90L45.90 22.90Q45.90 23.28 45.85 23.76Q45.80 24.23 45.73 24.75L45.73 24.75L33.69 24.75Q33.83 25.88 34.40 26.66Q34.98 27.45 35.84 27.89Q36.70 28.32 37.78 28.32L37.78 28.32Q39.08 28.32 40.11 27.80Q41.14 27.27 41.60 26.36L41.60 26.36L45.55 27.55Q44.50 29.80 42.44 31.02Q40.37 32.24 37.68 32.24ZM33.72 21.50L41 21.50Q40.97 20.52 40.48 19.73Q39.98 18.95 39.18 18.51Q38.38 18.07 37.40 18.07L37.40 18.07Q36.52 18.07 35.75 18.51Q34.98 18.95 34.44 19.71Q33.90 20.48 33.72 21.50L33.72 21.50ZM47.93 32L47.93 14.50L51.99 14.50L52.31 16.28Q53.15 15.34 54.35 14.80Q55.56 14.25 56.96 14.25L56.96 14.25Q59.03 14.25 60.48 15.13Q61.93 16.00 62.72 17.67Q63.51 19.33 63.51 21.78L63.51 21.78L63.51 32L58.99 32L58.99 22.38Q58.99 20.34 58.19 19.33Q57.38 18.31 55.77 18.31L55.77 18.31Q54.13 18.31 53.27 19.35Q52.41 20.38 52.41 22.41L52.41 22.41L52.41 32L47.93 32ZM64.94 14.50L67.43 14.50L67.43 9.60L71.94 9.60L71.94 14.50L75.83 14.50L75.83 18.45L71.94 18.45L71.94 25.56Q71.94 26.93 72.54 27.48Q73.13 28.04 74.02 28.08Q74.92 28.11 75.83 27.98L75.83 27.98L75.83 31.82Q74.22 32.17 72.69 32.03Q71.17 31.89 69.98 31.21Q68.79 30.53 68.11 29.13Q67.43 27.73 67.43 25.56L67.43 25.56L67.43 18.45L64.94 18.45L64.94 14.50ZM78.21 32L78.21 14.50L82.69 14.50L82.69 32L78.21 32ZM80.48 12.26L80.48 12.26Q79.22 12.26 78.42 11.45Q77.61 10.65 77.61 9.53L77.61 9.53Q77.61 8.37 78.42 7.59Q79.22 6.80 80.48 6.80L80.48 6.80Q81.67 6.80 82.49 7.59Q83.32 8.37 83.32 9.53L83.32 9.53Q83.32 10.65 82.49 11.45Q81.67 12.26 80.48 12.26ZM87.03 14.50L87.03 12.92Q87.03 10.65 87.85 9.21Q88.67 7.78 90.30 7.15Q91.93 6.52 94.38 6.80L94.38 6.80L94.38 10.75Q92.84 10.54 92.19 11.17Q91.54 11.80 91.54 13.13L91.54 13.13L91.54 14.50L94.55 14.50L94.55 18.45L91.54 18.45L91.54 32L87.03 32L87.03 18.45L84.96 18.45L84.96 14.50L87.03 14.50ZM103.97 26.02L108.34 14.50L113.14 14.50L102.81 39L98.30 39L101.59 31.37L94.69 14.50L99.70 14.50L103.97 26.02Z"/></g>
            
          </svg>
        